HIERARCHY
ROOT Hips
{
	OFFSET 0.00000 0.00000 0.00000
	CHANNELS 6 Xposition Yposition Zposition Yrotation Zrotation Xrotation 
	JOINT Lumbar
	{
		OFFSET 0 0 0
		CHANNELS 3 Zrotation Xrotation Yrotation
		JOINT Neck
		{
			OFFSET 0.00 0.2701 0.00
			CHANNELS 3 Zrotation Xrotation Yrotation
			End Site
			{
				OFFSET 0.00 0.1379 0.00
			}
		}
		JOINT RightShoulder
		{
			OFFSET 0.0119 0.2289 0.1181
			CHANNELS 3 Zrotation Xrotation Yrotation
			JOINT RightElbow
			{
				OFFSET 0.00 -0.1475 0.00
				CHANNELS 2 Zrotation Yrotation
				JOINT RightWrist
				{
					OFFSET 0.00 -0.1605 0.00
					CHANNELS 2 Zrotation Xrotation
					End Site
					{
						OFFSET 0.0040 -0.1068 0.0006
					}
				}
			}
		}
		JOINT LeftShoulder
		{
			OFFSET 0.0119 0.2289 -0.1181
			CHANNELS 3 Zrotation Xrotation Yrotation
			JOINT LeftElbow
			{
				OFFSET 0.00 -0.1475 0.00
				CHANNELS 2 Zrotation Yrotation
				JOINT LeftWrist
				{
					OFFSET 0.00 -0.1605 0.00
					CHANNELS 2 Zrotation Xrotation
					End Site
					{
						OFFSET 0.0040 -0.1068 -0.0006
					}
				}
			}
		}
	}
	JOINT RightHip
	{
		OFFSET 0.0316 -0.0424 0.0458
		CHANNELS 3 Zrotation Xrotation Yrotation
		JOINT RightKnee
		{
			OFFSET 0.00 -0.2438 0.00
			CHANNELS 1 Zrotation
			JOINT RightAnkle
			{
				OFFSET 0.00 -0.2449 0.00
				CHANNELS 3 Zrotation Xrotation Yrotation
				End Site
				{
					OFFSET 0.1237 -0.0542 0.0051
				}
			}
		}
	}
	JOINT LeftHip
	{
		OFFSET 0.0316 -0.0424 -0.0458
		CHANNELS 3 Zrotation Xrotation Yrotation
		JOINT LeftKnee
		{
			OFFSET 0.00 -0.2438 0.00
			CHANNELS 1 Zrotation
			JOINT LeftAnkle
			{
				OFFSET 0.00 -0.2449 0.00
				CHANNELS 3 Zrotation Xrotation Yrotation
				End Site
				{
					OFFSET 0.1237 -0.0542 -0.0051
				}
			}
		}
	}
}
MOTION
Frames: 17
Frame Time: 0.02
0.01883 0.04771 0.38126 450.20882 0 0.64043 -21.81219 -0.41651 0.21742 -7.9068 2.86218 1.32237 42.42861 -7.29555 28.34333 58.95859 83.58077 -18.92673 -4.01543 47.249 2.31033 -31.39012 42.74225 -97.10946 -41.88015 5.26519 121.66104 -29.77515 -39.20129 -123.13316 0.50188 0.77276 10.29878 129.77932 33.86434 27.348 -128.51669 -6.41098 -0.02111 -16.59836
0.01881 0.0477 0.38126 450.25966 0 0.57743 -21.60341 -0.35023 0.32368 -8.11538 2.70662 1.36367 41.18598 -7.76499 27.32163 60.24184 82.66022 -19.34134 -3.80104 46.14496 2.58802 -30.42321 44.00889 -94.80759 -42.35158 5.00276 121.5993 -29.89617 -39.16804 -123.12978 0.46621 0.80885 10.55141 129.77071 33.86312 27.37984 -128.49735 -6.46162 -0.02306 -16.60321
0.01881 0.04771 0.38127 450.31637 0 0.50252 -21.3334 -0.26937 0.40287 -8.40572 2.54585 1.37181 40.18695 -8.02641 26.36285 60.86397 81.69691 -19.58946 -3.59265 45.3168 2.74875 -29.5281 44.60653 -92.13324 -42.10993 4.73716 121.51385 -30.0349 -39.12857 -123.12542 0.45052 0.86314 10.87678 129.75844 33.86238 27.40846 -128.47404 -6.51116 -0.02749 -16.61337
0.0188 0.0477 0.38129 450.36469 0 0.43134 -21.0869 -0.1962 0.49333 -8.64697 2.38959 1.39358 39.10208 -8.37154 25.41512 61.72147 80.78814 -19.91285 -3.39004 44.39416 2.95109 -28.64077 45.4155 -89.67594 -42.18362 4.48015 121.44156 -30.14919 -39.09468 -123.1154 0.43235 0.90679 11.14684 129.75251 33.86288 27.43165 -128.4537 -6.5602 -0.03038 -16.6242
0.01878 0.04772 0.38126 450.43479 0 0.36599 -20.85936 -0.11907 0.59124 -8.93879 2.22349 1.42387 37.90305 -8.76689 24.29036 62.86606 79.71946 -20.24193 -3.14973 43.32914 3.20348 -27.57189 46.62924 -86.99828 -42.31557 4.19199 121.35912 -30.32814 -39.04954 -123.13049 0.38887 0.96107 11.50879 129.72899 33.85784 27.4786 -128.42926 -6.61127 -0.03479 -16.62341
0.01879 0.04769 0.38132 450.46224 0 0.28645 -20.57674 -0.04648 0.66548 -9.14462 2.0772 1.42726 37.00381 -9.00538 23.55576 63.24916 78.98776 -20.52287 -2.99106 42.62832 3.3246 -26.90073 46.844 -84.70397 -42.1499 3.96835 121.29241 -30.37963 -39.02601 -123.0938 0.40117 0.99737 11.6988 129.73971 33.86405 27.47916 -128.41188 -6.65799 -0.03674 -16.64715
0.01891 0.04751 0.38161 450.3654 0 0.16738 -20.16597 0.00955 0.68767 -9.09372 1.98358 1.36833 36.86631 -8.87469 23.84844 61.71173 79.07683 -20.65001 -3.04382 42.89778 3.09641 -27.33098 44.36142 -83.48765 -41.31882 3.92352 121.27275 -30.05906 -39.06617 -122.9084 0.57112 0.97863 11.37912 129.85466 33.90342 27.32945 -128.41766 -6.7018 -0.03074 -16.74245
0.01906 0.04727 0.38198 450.22662 0 0.03528 -19.69993 0.06067 0.68534 -8.95384 1.91064 1.28233 37.02521 -8.59004 24.5384 59.42528 79.52728 -20.74307 -3.18075 43.52115 2.74283 -28.15675 40.91197 -82.68351 -40.2119 3.94387 121.27023 -29.613 -39.12781 -122.67208 0.79464 0.94124 10.88727 130.00251 33.95364 27.13763 -128.43007 -6.7402 -0.02229 -16.8612
0.01919 0.04706 0.38231 450.11066 0 -0.08869 -19.25369 0.11439 0.68956 -8.85353 1.83067 1.20605 37.05299 -8.36736 25.07092 57.46708 79.89342 -20.89271 -3.28774 43.9626 2.45611 -28.79 37.96976 -81.74146 -39.2412 3.93462 121.26117 -29.23515 -39.17793 -122.463 0.98786 0.91287 10.48539 130.12917 33.9974 26.98096 -128.43762 -6.77555 -0.01535 -16.96571
0.01934 0.04686 0.38264 449.97906 0 -0.22279 -18.82892 0.16703 0.71247 -8.75757 1.74109 1.14007 37.07115 -8.17282 25.51048 55.538 79.92784 -20.86949 -3.36074 44.49925 2.12284 -29.48038 34.72021 -80.58415 -38.20451 3.92524 121.24561 -28.8106 -39.23523 -122.23655 1.20713 0.88279 10.03608 130.28144 34.0476 26.75768 -128.45295 -6.83346 -0.00685 -17.08549
0.01947 0.04662 0.383 449.86991 0 -0.33825 -18.34564 0.2206 0.69073 -8.63306 1.67575 1.04599 37.18016 -7.88382 26.23404 53.37806 80.73054 -21.19251 -3.52331 44.9221 1.85929 -30.14361 31.88729 -79.96973 -37.24356 3.93154 121.24845 -28.45335 -39.2828 -122.03425 1.38435 0.85167 9.64429 130.38897 34.08701 26.66172 -128.45357 -6.8439 -0.00093 -17.17904
0.01952 0.04627 0.38344 449.83395 0 -0.40283 -17.72693 0.27747 0.55347 -8.42899 1.67876 0.88621 37.43754 -7.38922 27.67078 50.77598 83.6407 -22.54458 -3.92228 44.91018 1.81059 -30.64408 30.46578 -80.82936 -36.60889 3.96624 121.29415 -28.31252 -39.29783 -121.91049 1.43385 0.82144 9.44826 130.35833 34.09347 26.94089 -128.41301 -6.718 -0.00317 -17.19333
0.01955 0.04586 0.38391 449.82184 0 -0.44729 -17.04905 0.3354 0.37169 -8.20386 1.70414 0.69822 37.78119 -6.80258 29.37347 47.96991 87.29507 -24.23284 -4.40649 44.77718 1.83854 -31.10055 29.49578 -82.21032 -36.05491 4.01438 121.35871 -28.24383 -39.30242 -121.81287 1.43856 0.79082 9.31668 130.28267 34.08878 27.34751 -128.35714 -6.54589 -0.008 -17.18045
0.01959 0.04546 0.38436 449.79811 0 -0.49864 -16.3905 0.39315 0.20954 -8.0017 1.71521 0.51988 38.10291 -6.24767 30.9382 45.25071 90.56376 -25.72839 -4.8455 44.71966 1.83745 -31.57226 28.30626 -83.303 -35.43412 4.05555 121.41706 -28.14195 -39.31211 -121.70372 1.463 0.76085 9.15859 130.23205 34.08951 27.68673 -128.30774 -6.39907 -0.01135 -17.1809
0.01965 0.04513 0.38481 449.77611 0 -0.56058 -15.76253 0.4497 0.04997 -7.73663 1.74499 0.35409 38.3594 -5.7301 32.59306 42.52352 94.05709 -27.40015 -5.31538 44.58553 1.80738 -32.08211 27.14264 -84.62077 -34.92772 4.10223 121.46558 -28.03688 -39.32112 -121.59144 1.49293 0.72839 8.98267 130.1636 34.08912 28.06324 -128.26106 -6.23338 -0.01587 -17.17863
0.01966 0.04465 0.38529 449.75685 0 -0.59471 -15.05677 0.50874 -0.12636 -7.60289 1.74023 0.15568 38.77184 -5.11469 34.11309 39.78201 97.23994 -28.77398 -5.7393 44.58103 1.85759 -32.49163 26.04553 -85.59557 -34.20939 4.14027 121.53939 -27.95788 -39.32872 -121.49241 1.49887 0.70107 8.86157 130.12073 34.08826 28.39446 -128.20448 -6.0968 -0.0186 -17.17448
0.01955 0.04379 0.38583 449.73804 0 -0.5638 -14.15779 0.57695 -0.32726 -7.8023 1.64023 -0.12421 39.5626 -4.25548 35.23726 36.99079 99.50617 -29.34137 -6.02145 44.93284 2.11015 -32.67737 25.02371 -85.4302 -32.85937 4.14648 121.67366 -27.92786 -39.33534 -121.42543 1.4598 0.68975 8.87583 130.16307 34.08894 28.55558 -128.12915 -6.04376 -0.01589 -17.1788
